<?xml version="1.0" encoding="iso-8859-1"?>
<!-- Generator: Adobe Illustrator 18.1.1, SVG Export Plug-In . SVG Version: 6.00 Build 0)  -->
<svg version="1.1" id="Capa_1" xmlns="http://www.w3.org/2000/svg" xmlns:xlink="http://www.w3.org/1999/xlink" x="0px" y="0px"
	 viewBox="0 0 612 612" style="enable-background:new 0 0 612 612;" xml:space="preserve" fill="#ffffff">
<g>
	<path d="M612,589.516L511.079,488.597c15.99-18.076,29.24-38.208,39.36-59.976c10.655-22.921,17.747-47.294,21.074-72.437
		c3.309-25.001,2.838-50.274-1.396-75.122c-4.271-25.074-12.297-49.218-23.855-71.767c-11.828-23.084-27.226-44.193-45.76-62.738
		l-10.85-10.857l-10.85,10.857c-2.2,2.203-4.37,4.453-6.45,6.693c-17.868,19.229-32.499,40.96-43.485,64.592
		c-10.655,22.924-17.747,47.296-21.072,72.437c-3.311,24.999-2.842,50.272,1.394,75.122c1.593,9.358,3.712,18.584,6.342,27.651
		l-65.749-65.749c9.926-11.946,18.297-25.383,24.697-40.09c17.804-40.903,18.611-86.29,2.277-127.8
		c-16.336-41.51-47.857-74.175-88.76-91.977l-153.13-66.65l-14.957,34.368H36.57V116.3L0,132.478c0,0,65.506,148.123,65.944,149.238
		c16.334,41.51,47.857,74.175,88.76,91.977c21.212,9.231,43.608,13.914,66.568,13.914c39.851,0,77.401-14.153,106.821-38.604
		l262.211,262.211L612,589.516z M438.212,294.3c2.917-22.056,9.134-43.43,18.479-63.527c8.547-18.387,19.617-35.468,32.961-50.873
		c11.51,13.29,21.335,27.828,29.308,43.386c10.132,19.766,17.166,40.936,20.914,62.926c3.715,21.81,4.129,43.998,1.225,65.942
		c-2.919,22.058-9.137,43.432-18.481,63.529c-8.545,18.385-19.617,35.466-32.961,50.87c-11.51-13.29-21.335-27.828-29.308-43.384
		c-10.132-19.772-17.169-40.945-20.914-62.928C435.716,338.434,435.306,316.247,438.212,294.3z M67.252,65.835h39.306L96.045,89.984
		l-28.795,12.74V65.835H67.252z M77.96,131.54l-9.739,22.376c-4.701,10.8-8.183,21.918-10.511,33.189l-17.239-38.977L77.96,131.54z
		 M166.948,345.561c-33.388-14.53-59.122-41.195-72.455-75.078c-13.333-33.884-12.672-70.934,1.861-104.322l54.401-124.997
		l124.997,54.403c33.386,14.532,59.119,41.195,72.455,75.078c13.333,33.884,12.672,70.934-1.858,104.322
		c-21.672,49.788-70.765,81.96-125.076,81.96C202.55,356.926,184.272,353.102,166.948,345.561z"/>
</g>
<g>
</g>
<g>
</g>
<g>
</g>
<g>
</g>
<g>
</g>
<g>
</g>
<g>
</g>
<g>
</g>
<g>
</g>
<g>
</g>
<g>
</g>
<g>
</g>
<g>
</g>
<g>
</g>
<g>
</g>
</svg>
